<svg xmlns="http://www.w3.org/2000/svg" xmlns:xlink="http://www.w3.org/1999/xlink" width="500" zoomAndPan="magnify" viewBox="0 0 375 374.999991" height="500" preserveAspectRatio="xMidYMid meet" version="1.0"><defs><g/><clipPath id="500f8e8eb2"><path d="M 187.5 0 C 83.945312 0 0 83.945312 0 187.5 C 0 291.054688 83.945312 375 187.5 375 C 291.054688 375 375 291.054688 375 187.5 C 375 83.945312 291.054688 0 187.5 0 " clip-rule="nonzero"/></clipPath><clipPath id="bc758f8d2d"><path d="M 82.378906 44.746094 L 292.378906 44.746094 L 292.378906 310 L 82.378906 310 Z M 82.378906 44.746094 " clip-rule="nonzero"/></clipPath><clipPath id="cc828c5093"><path d="M 129 280 L 246 280 L 246 330.488281 L 129 330.488281 Z M 129 280 " clip-rule="nonzero"/></clipPath></defs><g clip-path="url(#500f8e8eb2)"><rect x="-37.5" width="450" fill="#4faa38" y="-37.499999" height="449.999989" fill-opacity="1"/></g><g clip-path="url(#bc758f8d2d)"><path fill="#ffffff" d="M 187.378906 44.738281 C 216.355469 44.738281 242.589844 56.503906 261.578125 75.53125 C 280.566406 94.554688 292.3125 120.839844 292.3125 149.871094 C 292.3125 188.523438 261.097656 223.882812 229.824219 259.300781 C 215.75 275.242188 201.664062 291.195312 190.582031 307.332031 L 190.59375 307.339844 C 189.375 309.117188 186.945312 309.566406 185.171875 308.34375 C 184.679688 308.003906 184.289062 307.570312 184.007812 307.085938 C 172.953125 291.035156 158.9375 275.160156 144.9375 259.300781 C 113.664062 223.882812 82.449219 188.523438 82.449219 149.871094 C 82.449219 120.839844 94.195312 94.554688 113.183594 75.53125 C 132.171875 56.503906 158.40625 44.738281 187.382812 44.738281 Z M 256.0625 81.054688 C 238.488281 63.445312 214.203125 52.550781 187.378906 52.550781 C 160.558594 52.550781 136.273438 63.445312 118.695312 81.054688 C 101.121094 98.664062 90.25 122.996094 90.25 149.871094 C 90.25 185.613281 120.476562 219.847656 150.753906 254.140625 C 163.691406 268.792969 176.636719 283.457031 187.378906 298.367188 C 198.125 283.457031 211.070312 268.792969 224.007812 254.140625 C 254.285156 219.847656 284.511719 185.613281 284.511719 149.871094 C 284.511719 122.996094 273.640625 98.664062 256.0625 81.054688 Z M 256.0625 81.054688 " fill-opacity="1" fill-rule="nonzero"/></g><path fill="#ffffff" d="M 187.378906 94.652344 C 202.355469 94.652344 215.914062 100.734375 225.726562 110.566406 C 235.539062 120.398438 241.609375 133.984375 241.609375 148.988281 C 241.609375 163.988281 235.539062 177.574219 225.726562 187.40625 C 215.914062 197.242188 202.355469 203.320312 187.378906 203.320312 C 172.40625 203.320312 158.847656 197.238281 149.035156 187.40625 C 139.21875 177.574219 133.152344 163.988281 133.152344 148.988281 C 133.152344 133.984375 139.222656 120.398438 149.035156 110.566406 C 158.847656 100.734375 172.40625 94.652344 187.378906 94.652344 Z M 220.210938 116.089844 C 211.8125 107.671875 200.203125 102.464844 187.378906 102.464844 C 174.558594 102.464844 162.949219 107.671875 154.546875 116.089844 C 146.148438 124.507812 140.949219 136.140625 140.949219 148.988281 C 140.949219 161.832031 146.144531 173.464844 154.546875 181.882812 C 162.949219 190.300781 174.558594 195.507812 187.378906 195.507812 C 200.203125 195.507812 211.8125 190.300781 220.214844 181.882812 C 228.613281 173.464844 233.8125 161.832031 233.8125 148.988281 C 233.8125 136.140625 228.613281 124.507812 220.210938 116.089844 Z M 220.210938 116.089844 " fill-opacity="1" fill-rule="nonzero"/><g clip-path="url(#cc828c5093)"><path fill="#ffffff" d="M 203.863281 280.746094 C 201.726562 280.484375 199.78125 282.007812 199.523438 284.148438 C 199.261719 286.289062 200.78125 288.234375 202.917969 288.496094 C 213.613281 289.808594 222.75 292.421875 229.105469 295.84375 C 234.417969 298.703125 237.558594 301.933594 237.558594 305.125 C 237.558594 309.28125 232.449219 313.386719 224.1875 316.664062 C 214.832031 320.378906 201.820312 322.675781 187.378906 322.675781 C 172.941406 322.675781 159.929688 320.378906 150.570312 316.664062 C 142.3125 313.386719 137.199219 309.28125 137.199219 305.125 C 137.199219 301.914062 140.367188 298.671875 145.714844 295.804688 C 152.105469 292.375 161.300781 289.769531 172.0625 288.46875 C 174.199219 288.214844 175.722656 286.273438 175.472656 284.136719 C 175.21875 281.996094 173.28125 280.464844 171.148438 280.71875 C 159.460938 282.128906 149.304688 285.050781 142.058594 288.9375 C 134.105469 293.199219 129.402344 298.78125 129.402344 305.125 C 129.402344 312.816406 136.398438 319.441406 147.707031 323.929688 C 157.921875 327.980469 171.953125 330.488281 187.378906 330.488281 C 202.804688 330.488281 216.839844 327.980469 227.050781 323.929688 C 238.363281 319.441406 245.359375 312.816406 245.359375 305.125 C 245.359375 298.796875 240.691406 293.230469 232.789062 288.972656 C 225.59375 285.097656 215.492188 282.171875 203.863281 280.746094 Z M 203.863281 280.746094 " fill-opacity="1" fill-rule="nonzero"/></g><g fill="#ffffff" fill-opacity="1"><g transform="translate(130.430496, 124.826592)"><g><path d="M -19.859375 -13.578125 L -24.21875 -16.1875 L -11.921875 -36.671875 L -7.5625 -34.0625 L -12.15625 -26.421875 L 8.4375 -14.0625 L 5.3125 -8.859375 L -15.28125 -21.21875 Z M -19.859375 -13.578125 "/></g></g></g><g fill="#ffffff" fill-opacity="1"><g transform="translate(141.289393, 105.444292)"><g><path d="M -1.1875 -15.140625 L 6.640625 -5.25 L 1.90625 -1.5 L -16.140625 -24.3125 L -11.546875 -27.953125 L -4.65625 -19.234375 L -4.453125 -19.390625 C -4.847656 -20.710938 -4.847656 -22 -4.453125 -23.25 C -4.054688 -24.507812 -3.203125 -25.660156 -1.890625 -26.703125 C -0.109375 -28.109375 1.773438 -28.664062 3.765625 -28.375 C 5.753906 -28.082031 7.535156 -26.929688 9.109375 -24.921875 L 17.734375 -14.03125 L 12.984375 -10.28125 L 5.03125 -20.328125 C 4.207031 -21.378906 3.296875 -21.984375 2.296875 -22.140625 C 1.296875 -22.304688 0.3125 -22.007812 -0.65625 -21.25 C -1.625 -20.488281 -2.171875 -19.5625 -2.296875 -18.46875 C -2.421875 -17.375 -2.050781 -16.265625 -1.1875 -15.140625 Z M -1.1875 -15.140625 "/></g></g></g><g fill="#ffffff" fill-opacity="1"><g transform="translate(157.094713, 92.111311)"><g><path d="M 11.84375 -3.578125 C 9.71875 -2.859375 7.738281 -2.664062 5.90625 -3 C 4.082031 -3.34375 2.488281 -4.171875 1.125 -5.484375 C -0.238281 -6.804688 -1.289062 -8.554688 -2.03125 -10.734375 C -2.75 -12.859375 -2.96875 -14.859375 -2.6875 -16.734375 C -2.414062 -18.617188 -1.679688 -20.265625 -0.484375 -21.671875 C 0.710938 -23.085938 2.320312 -24.140625 4.34375 -24.828125 C 6.164062 -25.441406 7.941406 -25.613281 9.671875 -25.34375 C 11.398438 -25.070312 12.957031 -24.304688 14.34375 -23.046875 C 15.738281 -21.785156 16.835938 -19.976562 17.640625 -17.625 L 18.171875 -16.0625 L 4.09375 -11.28125 L 4.09375 -11.265625 C 4.625 -9.722656 5.460938 -8.648438 6.609375 -8.046875 C 7.753906 -7.453125 9.039062 -7.398438 10.46875 -7.890625 C 11.4375 -8.210938 12.195312 -8.695312 12.75 -9.34375 C 13.3125 -9.988281 13.597656 -10.75 13.609375 -11.625 L 19.046875 -13.09375 C 19.296875 -11.03125 18.796875 -9.144531 17.546875 -7.4375 C 16.296875 -5.726562 14.394531 -4.441406 11.84375 -3.578125 Z M 2.890625 -14.828125 L 11.5625 -17.78125 C 11.125 -19.019531 10.378906 -19.898438 9.328125 -20.421875 C 8.285156 -20.953125 7.140625 -21.003906 5.890625 -20.578125 C 4.617188 -20.140625 3.710938 -19.367188 3.171875 -18.265625 C 2.640625 -17.171875 2.546875 -16.023438 2.890625 -14.828125 Z M 2.890625 -14.828125 "/></g></g></g><g fill="#ffffff" fill-opacity="1"><g transform="translate(174.962393, 84.513258)"><g><path d="M 9.15625 -28.6875 L 15.125 -6.265625 L 15.390625 -6.25 L 23.484375 -28.015625 L 30.3125 -27.6875 L 18.90625 0.90625 L 10.984375 0.515625 L 2.34375 -29.015625 Z M 9.15625 -28.6875 "/></g></g></g><g fill="#ffffff" fill-opacity="1"><g transform="translate(200.956468, 86.563606)"><g><path d="M 2.296875 0.796875 L 9.40625 -19.828125 L 15.109375 -17.859375 L 8 2.765625 Z M 13.1875 -21.5 C 12.34375 -21.789062 11.710938 -22.320312 11.296875 -23.09375 C 10.890625 -23.875 10.820312 -24.664062 11.09375 -25.46875 C 11.375 -26.269531 11.914062 -26.84375 12.71875 -27.1875 C 13.519531 -27.539062 14.34375 -27.570312 15.1875 -27.28125 C 16.03125 -26.988281 16.660156 -26.457031 17.078125 -25.6875 C 17.492188 -24.925781 17.5625 -24.144531 17.28125 -23.34375 C 17.007812 -22.539062 16.46875 -21.957031 15.65625 -21.59375 C 14.851562 -21.238281 14.03125 -21.207031 13.1875 -21.5 Z M 13.1875 -21.5 "/></g></g></g><g fill="#ffffff" fill-opacity="1"><g transform="translate(208.722586, 88.00831)"><g><path d="M 10.140625 7.078125 C 8.253906 5.859375 6.878906 4.425781 6.015625 2.78125 C 5.160156 1.132812 4.820312 -0.628906 5 -2.515625 C 5.1875 -4.398438 5.90625 -6.3125 7.15625 -8.25 C 8.375 -10.125 9.8125 -11.535156 11.46875 -12.484375 C 13.125 -13.441406 14.875 -13.882812 16.71875 -13.8125 C 18.570312 -13.738281 20.394531 -13.117188 22.1875 -11.953125 C 23.8125 -10.910156 25.046875 -9.625 25.890625 -8.09375 C 26.742188 -6.570312 27.109375 -4.875 26.984375 -3 C 26.859375 -1.125 26.125 0.847656 24.78125 2.921875 L 23.875 4.3125 L 11.40625 -3.765625 L 11.390625 -3.75 C 10.503906 -2.382812 10.179688 -1.066406 10.421875 0.203125 C 10.660156 1.472656 11.414062 2.519531 12.6875 3.34375 C 13.539062 3.894531 14.390625 4.191406 15.234375 4.234375 C 16.078125 4.273438 16.859375 4.023438 17.578125 3.484375 L 22.078125 6.859375 C 20.609375 8.328125 18.816406 9.097656 16.703125 9.171875 C 14.585938 9.242188 12.398438 8.546875 10.140625 7.078125 Z M 13.4375 -6.90625 L 21.109375 -1.9375 C 21.804688 -3.03125 22.039062 -4.148438 21.8125 -5.296875 C 21.582031 -6.453125 20.914062 -7.390625 19.8125 -8.109375 C 18.6875 -8.835938 17.523438 -9.070312 16.328125 -8.8125 C 15.128906 -8.550781 14.164062 -7.914062 13.4375 -6.90625 Z M 13.4375 -6.90625 "/></g></g></g><g fill="#ffffff" fill-opacity="1"><g transform="translate(225.906495, 96.760137)"><g><path d="M 3.75 5.578125 L 18.546875 -11.5 L 21.953125 -6.421875 L 11.671875 4.546875 L 11.78125 4.71875 L 25.90625 -0.53125 L 29.265625 4.453125 L 19.171875 15.546875 L 19.265625 15.703125 L 33.21875 10.34375 L 36.625 15.40625 L 15.203125 22.65625 L 11.640625 17.328125 L 20.9375 6.578125 L 20.78125 6.359375 L 7.3125 10.890625 Z M 3.75 5.578125 "/></g></g></g></svg>